<svg xmlns="http://www.w3.org/2000/svg" xmlns:xlink="http://www.w3.org/1999/xlink" width="100" zoomAndPan="magnify" viewBox="0 0 75 30.000001" height="40" preserveAspectRatio="xMidYMid meet" version="1.0"><defs><g/><clipPath id="b1fd0a5a09"><path d="M 2.371094 6.964844 L 17.46875 6.964844 L 17.46875 22.0625 L 2.371094 22.0625 Z M 2.371094 6.964844 " clip-rule="nonzero"/></clipPath><clipPath id="442f3dcacb"><path d="M 8 7 L 17.46875 7 L 17.46875 18 L 8 18 Z M 8 7 " clip-rule="nonzero"/></clipPath><clipPath id="32baee9166"><path d="M 7 7 L 17.46875 7 L 17.46875 19 L 7 19 Z M 7 7 " clip-rule="nonzero"/></clipPath><clipPath id="6210cedf58"><path d="M 2.371094 11 L 11 11 L 11 22 L 2.371094 22 Z M 2.371094 11 " clip-rule="nonzero"/></clipPath></defs><g clip-path="url(#b1fd0a5a09)"><path fill="#ffffff" d="M 2.371094 6.964844 L 17.46875 6.964844 L 17.46875 22.0625 L 2.371094 22.0625 Z M 2.371094 6.964844 " fill-opacity="1" fill-rule="nonzero"/></g><g clip-path="url(#442f3dcacb)"><path fill="#44cd72" d="M 14.757812 15.390625 C 14.253906 15.597656 13.699219 15.714844 13.121094 15.714844 C 10.742188 15.714844 8.808594 13.78125 8.808594 11.402344 C 8.808594 9.023438 10.742188 7.089844 13.121094 7.089844 C 15.5 7.089844 17.433594 9.023438 17.433594 11.402344 C 17.433594 12.679688 16.875 13.828125 15.988281 14.621094 L 16.917969 17.011719 Z M 14.757812 15.390625 " fill-opacity="1" fill-rule="nonzero"/></g><path fill="#44cd72" d="M 8.820312 11.050781 C 8.8125 11.167969 8.804688 11.28125 8.804688 11.398438 C 8.804688 12.820312 9.496094 14.082031 10.558594 14.871094 L 10.558594 18.324219 L 6.195312 18.324219 L 5.917969 20.71875 L 4.816406 18.324219 L 3.542969 18.324219 L 3.542969 11.050781 Z M 8.820312 11.050781 " fill-opacity="1" fill-rule="nonzero"/><g clip-path="url(#32baee9166)"><path fill="#000000" d="M 13.949219 16.667969 L 15.941406 18.160156 C 16.082031 18.261719 16.269531 18.261719 16.410156 18.15625 C 16.546875 18.050781 16.601562 17.867188 16.535156 17.707031 L 15.699219 15.554688 C 16.546875 14.703125 17.074219 13.53125 17.074219 12.234375 C 17.074219 9.640625 14.964844 7.535156 12.371094 7.535156 C 9.777344 7.535156 7.671875 9.640625 7.671875 12.234375 C 7.671875 14.828125 9.777344 16.9375 12.371094 16.9375 C 12.925781 16.941406 13.457031 16.84375 13.949219 16.667969 Z M 14.246094 15.914062 C 14.136719 15.835938 13.992188 15.816406 13.863281 15.867188 C 13.40625 16.058594 12.902344 16.160156 12.375 16.160156 C 10.210938 16.160156 8.453125 14.402344 8.453125 12.238281 C 8.453125 10.074219 10.210938 8.316406 12.375 8.316406 C 14.539062 8.316406 16.296875 10.074219 16.296875 12.238281 C 16.296875 13.402344 15.789062 14.449219 14.984375 15.164062 C 14.863281 15.273438 14.820312 15.445312 14.882812 15.597656 L 15.320312 16.722656 Z M 14.246094 15.914062 " fill-opacity="1" fill-rule="nonzero"/></g><path fill="#000000" d="M 4.136719 17.53125 L 8.058594 17.53125 C 8.269531 17.53125 8.445312 17.355469 8.445312 17.140625 C 8.445312 16.925781 8.269531 16.753906 8.058594 16.753906 L 4.136719 16.753906 C 3.921875 16.753906 3.746094 16.925781 3.746094 17.140625 C 3.75 17.359375 3.921875 17.53125 4.136719 17.53125 Z M 4.136719 15.855469 L 7.820312 15.855469 C 8.035156 15.855469 8.210938 15.679688 8.210938 15.464844 C 8.210938 15.25 8.035156 15.078125 7.820312 15.078125 L 4.136719 15.078125 C 3.921875 15.078125 3.746094 15.25 3.746094 15.464844 C 3.75 15.679688 3.921875 15.855469 4.136719 15.855469 Z M 4.136719 14.179688 L 6.613281 14.179688 C 6.828125 14.179688 7.003906 14.003906 7.003906 13.789062 C 7.003906 13.574219 6.828125 13.402344 6.613281 13.402344 L 4.136719 13.402344 C 3.921875 13.402344 3.746094 13.574219 3.746094 13.789062 C 3.75 14.003906 3.921875 14.179688 4.136719 14.179688 Z M 4.136719 14.179688 " fill-opacity="1" fill-rule="nonzero"/><path fill="#000000" d="M 14.214844 11.859375 L 11.738281 11.859375 C 11.523438 11.859375 11.347656 12.03125 11.347656 12.246094 C 11.347656 12.460938 11.523438 12.636719 11.738281 12.636719 L 14.214844 12.636719 C 14.429688 12.636719 14.605469 12.460938 14.605469 12.246094 C 14.605469 12.03125 14.429688 11.859375 14.214844 11.859375 Z M 14.214844 10.179688 L 10.53125 10.179688 C 10.316406 10.179688 10.140625 10.355469 10.140625 10.566406 C 10.140625 10.78125 10.316406 10.957031 10.53125 10.957031 L 14.214844 10.957031 C 14.429688 10.957031 14.605469 10.78125 14.605469 10.566406 C 14.605469 10.355469 14.429688 10.179688 14.214844 10.179688 Z M 14.214844 10.179688 " fill-opacity="1" fill-rule="nonzero"/><g clip-path="url(#6210cedf58)"><path fill="#000000" d="M 8.460938 11.921875 C 8.46875 11.8125 8.433594 11.707031 8.359375 11.625 C 8.285156 11.546875 8.179688 11.5 8.070312 11.5 L 2.796875 11.5 C 2.582031 11.5 2.40625 11.675781 2.40625 11.890625 L 2.40625 19.160156 C 2.40625 19.375 2.582031 19.550781 2.796875 19.550781 L 3.820312 19.550781 L 4.816406 21.71875 C 4.890625 21.875 5.058594 21.96875 5.230469 21.941406 C 5.402344 21.914062 5.535156 21.773438 5.558594 21.601562 L 5.796875 19.550781 C 6.828125 19.550781 9.8125 19.550781 9.8125 19.550781 C 10.027344 19.550781 10.199219 19.375 10.199219 19.160156 L 10.199219 15.707031 C 10.199219 15.582031 10.144531 15.46875 10.042969 15.394531 C 9.074219 14.679688 8.445312 13.53125 8.445312 12.234375 C 8.449219 12.128906 8.453125 12.023438 8.460938 11.921875 Z M 7.671875 12.277344 C 7.683594 13.738281 8.363281 15.042969 9.425781 15.898438 L 9.425781 18.773438 L 5.449219 18.773438 C 5.253906 18.773438 5.089844 18.921875 5.066406 19.117188 L 4.945312 20.132812 L 4.425781 19 C 4.359375 18.859375 4.222656 18.773438 4.070312 18.773438 L 3.1875 18.773438 L 3.1875 12.277344 Z M 7.671875 12.277344 " fill-opacity="1" fill-rule="nonzero"/></g><g fill="#000b3b" fill-opacity="1"><g transform="translate(20.711323, 18.334169)"><g><path d="M 1.03125 -6.90625 L 2.03125 -6.90625 L 2.03125 -7.96875 L 1.03125 -7.96875 Z M -0.453125 2.109375 L 0.015625 2.109375 C 1.203125 2.109375 1.984375 1.328125 1.984375 0.15625 L 1.984375 -5.890625 L 1.0625 -5.890625 L 1.0625 0.078125 C 1.0625 0.828125 0.640625 1.265625 -0.109375 1.265625 L -0.453125 1.265625 Z M -0.453125 2.109375 "/></g></g></g><g fill="#000b3b" fill-opacity="1"><g transform="translate(23.633695, 18.334169)"><g><path d="M 3.4375 0.125 C 5.03125 0.125 6.046875 -0.890625 6.046875 -2.46875 L 6.046875 -5.890625 L 5.125 -5.890625 L 5.125 -2.625 C 5.125 -1.484375 4.5 -0.765625 3.4375 -0.765625 C 2.40625 -0.765625 1.75 -1.46875 1.75 -2.625 L 1.75 -5.890625 L 0.828125 -5.890625 L 0.828125 -2.46875 C 0.828125 -0.890625 1.859375 0.125 3.4375 0.125 Z M 3.4375 0.125 "/></g></g></g><g fill="#000b3b" fill-opacity="1"><g transform="translate(30.525253, 18.334169)"><g><path d="M 7.4375 -6.015625 C 6.625 -6.015625 5.875 -5.578125 5.4375 -4.890625 C 5.109375 -5.578125 4.46875 -6.015625 3.625 -6.015625 C 2.890625 -6.015625 2.203125 -5.65625 1.75 -5.078125 L 1.59375 -5.890625 L 0.921875 -5.890625 L 0.921875 0 L 1.859375 0 L 1.859375 -3.265625 C 1.859375 -4.34375 2.5625 -5.171875 3.421875 -5.171875 C 4.28125 -5.171875 4.765625 -4.53125 4.765625 -3.46875 L 4.765625 0 L 5.6875 0 L 5.6875 -3.265625 C 5.6875 -4.34375 6.390625 -5.171875 7.25 -5.171875 C 8.09375 -5.171875 8.578125 -4.53125 8.578125 -3.46875 L 8.578125 0 L 9.515625 0 L 9.515625 -3.765625 C 9.515625 -5.078125 8.6875 -6.015625 7.4375 -6.015625 Z M 7.4375 -6.015625 "/></g></g></g><g fill="#000b3b" fill-opacity="1"><g transform="translate(40.884398, 18.334169)"><g><path d="M 4.03125 -6.015625 C 3.15625 -6.015625 2.40625 -5.6875 1.859375 -5.140625 L 1.859375 -7.984375 L 0.921875 -7.984375 L 0.921875 0 L 1.640625 0 L 1.78125 -0.828125 C 2.328125 -0.234375 3.125 0.125 4.03125 0.125 C 5.8125 0.125 7.078125 -1.1875 7.078125 -2.9375 C 7.078125 -4.703125 5.8125 -6.015625 4.03125 -6.015625 Z M 3.96875 -0.765625 C 2.71875 -0.765625 1.796875 -1.71875 1.796875 -2.9375 C 1.796875 -4.171875 2.71875 -5.109375 3.96875 -5.109375 C 5.21875 -5.109375 6.125 -4.1875 6.125 -2.9375 C 6.125 -1.6875 5.21875 -0.765625 3.96875 -0.765625 Z M 3.96875 -0.765625 "/></g></g></g><g fill="#000b3b" fill-opacity="1"><g transform="translate(48.43022, 18.334169)"><g><path d="M 0.921875 0 L 1.859375 0 L 1.859375 -7.984375 L 0.921875 -7.984375 Z M 0.921875 0 "/></g></g></g><g fill="#000b3b" fill-opacity="1"><g transform="translate(51.221737, 18.334169)"><g><path d="M 5.234375 -5.890625 L 3.265625 -1.421875 L 1.171875 -5.890625 L 0.15625 -5.890625 L 2.78125 -0.390625 L 2.578125 0.046875 C 2.09375 1.03125 1.828125 1.265625 1.03125 1.265625 L 0.5625 1.265625 L 0.5625 2.109375 L 1.109375 2.109375 C 2.21875 2.109375 2.78125 1.640625 3.40625 0.25 L 6.234375 -5.890625 Z M 5.234375 -5.890625 "/></g></g></g><g fill="#44cd72" fill-opacity="1"><g transform="translate(57.611818, 18.334169)"><g><path d="M 0.640625 0 L 2.328125 0 L 2.328125 -1.703125 L 0.640625 -1.703125 Z M 0.640625 0 "/></g></g></g><g fill="#000b3b" fill-opacity="1"><g transform="translate(60.60003, 18.334169)"><g><path d="M 5.9375 0 L 7.734375 0 L 4.640625 -7.640625 L 3.09375 -7.640625 L 0.09375 0 L 1.84375 0 L 2.359375 -1.4375 L 5.40625 -1.4375 Z M 3.875 -5.609375 L 4.890625 -2.875 L 2.875 -2.875 Z M 3.875 -5.609375 "/></g></g></g><g fill="#000b3b" fill-opacity="1"><g transform="translate(68.429363, 18.334169)"><g><path d="M 0.875 0 L 2.515625 0 L 2.515625 -7.640625 L 0.875 -7.640625 Z M 0.875 0 "/></g></g></g></svg>